<svg width="65" height="68" viewBox="0 0 65 68" fill="none" xmlns="http://www.w3.org/2000/svg">
<path d="M10.3099 68V53.38C7.09034 50.4333 4.59093 46.9908 2.81169 43.0525C1.03244 39.1142 0.142822 34.9633 0.142822 30.6C0.142822 22.1 3.10823 14.875 9.03903 8.925C14.9698 2.975 22.1715 0 30.6441 0C37.7046 0 43.9602 2.0825 49.4109 6.2475C54.8616 10.4125 58.4059 15.8383 60.044 22.525L64.4497 39.95C64.7321 41.0267 64.5344 42.0042 63.8566 42.8825C63.1788 43.7608 62.2751 44.2 61.1454 44.2H54.3673V54.4C54.3673 56.27 53.7037 57.8708 52.3763 59.2025C51.0489 60.5342 49.4532 61.2 47.5893 61.2H40.8112V68H34.0331V54.4H47.5893V37.4H56.7397L53.5201 24.225C52.221 19.0683 49.4532 14.875 45.217 11.645C40.9807 8.415 36.1231 6.8 30.6441 6.8C24.092 6.8 18.5001 9.095 13.8684 13.685C9.23673 18.275 6.92089 23.8567 6.92089 30.43C6.92089 33.83 7.61281 37.06 8.99667 40.12C10.3805 43.18 12.3433 45.9 14.8851 48.28L17.088 50.32V68H10.3099ZM30.6441 47.6C31.6043 47.6 32.4092 47.2742 33.0588 46.6225C33.7084 45.9708 34.0331 45.1633 34.0331 44.2C34.0331 43.2367 33.7084 42.4292 33.0588 41.7775C32.4092 41.1258 31.6043 40.8 30.6441 40.8C29.6839 40.8 28.879 41.1258 28.2294 41.7775C27.5799 42.4292 27.2551 43.2367 27.2551 44.2C27.2551 45.1633 27.5799 45.9708 28.2294 46.6225C28.879 47.2742 29.6839 47.6 30.6441 47.6ZM28.1023 36.72H33.2706C33.2706 35.3033 33.4542 34.1558 33.8213 33.2775C34.1885 32.3992 34.9369 31.3367 36.0666 30.09C37.0833 28.9567 38.0717 27.8092 39.032 26.6475C39.9922 25.4858 40.4723 23.97 40.4723 22.1C40.4723 19.72 39.5544 17.7083 37.7187 16.065C35.883 14.4217 33.6095 13.6 30.8983 13.6C28.6389 13.6 26.5914 14.2517 24.7557 15.555C22.9199 16.8583 21.6349 18.5583 20.9006 20.655L25.5606 22.61C25.956 21.3633 26.6479 20.3575 27.6363 19.5925C28.6248 18.8275 29.7121 18.445 30.8983 18.445C32.1409 18.445 33.1718 18.785 33.9908 19.465C34.8098 20.145 35.2193 21.0233 35.2193 22.1C35.2193 23.29 34.8663 24.3525 34.1602 25.2875C33.4542 26.2225 32.6211 27.1717 31.6608 28.135C30.5311 29.325 29.6556 30.515 29.0343 31.705C28.413 32.895 28.1023 34.5667 28.1023 36.72Z" fill="#357C5B"/>
</svg>
